M48
;DRILL file {KiCad (5.0.2)-1} date 6/5/2019 2:44:28 PM
;FORMAT={-:-/ absolute / inch / decimal}
FMAT,2
INCH,TZ
T1C0.0300
T2C0.0315
T3C0.0394
T4C0.0433
T5C0.0472
T6C0.1496
%
G90
G05
T1
X2.9986Y-3.0293
X2.9986Y-3.1293
X2.9986Y-3.2293
X2.9986Y-3.3293
X2.9986Y-3.4293
X2.9986Y-3.5293
X2.9986Y-3.6293
X2.9986Y-3.7293
X2.9986Y-3.8293
X2.9986Y-3.9293
X2.9986Y-4.0293
X2.9986Y-4.1293
X2.9986Y-4.2293
X2.9986Y-4.3293
X2.9986Y-4.4293
X3.9236Y-3.0293
X3.9236Y-3.1293
X3.9236Y-3.2293
X3.9236Y-3.3293
X3.9236Y-3.4293
X3.9236Y-3.5293
X3.9236Y-3.6293
X3.9236Y-3.7293
X3.9236Y-3.8293
X3.9236Y-3.9293
X3.9236Y-4.0293
X3.9236Y-4.1293
X3.9236Y-4.2293
X3.9236Y-4.3293
X3.9236Y-4.4293
T2
X1.7047Y-5.1496
X1.8031Y-5.1496
X3.7598Y-4.9488
X3.7598Y-5.0472
X3.185Y-4.3268
X3.185Y-4.4252
X3.3228Y-2.6496
X3.3228Y-2.748
X3.3504Y-4.3307
X3.3504Y-4.4291
X3.7441Y-5.1535
X3.8425Y-5.1535
T3
X1.706Y-5.0421
X1.805Y-5.0431
X1.905Y-5.0431
X2.005Y-5.0441
X4.1732Y-3.4299
X4.1732Y-3.5299
X4.1732Y-3.6299
X4.1732Y-3.7299
X4.1732Y-3.8299
X4.1732Y-3.9299
X4.1732Y-4.0299
X4.1732Y-4.1299
X3.326Y-2.5354
X3.426Y-2.5354
X3.526Y-2.5354
X3.626Y-2.5354
T4
X3.9528Y-4.9528
X3.9528Y-5.0528
X3.9528Y-5.1528
T5
X3.4724Y-2.6969
X3.7362Y-2.6969
X4.0315Y-4.4252
X4.0315Y-4.6575
T6
X4.1998Y-4.8578
X4.1998Y-5.2498
T3
X2.9724Y-4.815G85X3.0512Y-4.815
G05
X2.9724Y-5.0512G85X3.0512Y-5.0512
G05
X3.1969Y-4.9724G85X3.1969Y-4.8937
G05
T0
M30
